<svg xmlns="http://www.w3.org/2000/svg" xmlns:xlink="http://www.w3.org/1999/xlink">
  <symbol id="menu-handle" viewBox="0 0 24 24" height="24" width="24" xmlns="http://www.w3.org/2000/svg">
    <path d="M0 0h24v24H0z" fill="none"/>
    <path d="M3 18h18v-2H3v2zm0-5h18v-2H3v2zm0-7v2h18V6H3z"/>
  </symbol>
  <symbol id="more-hori-handle" viewBox="0 0 24 24" height="24" width="24" xmlns="http://www.w3.org/2000/svg">
    <path d="M0 0h24v24H0z" fill="none"/>
    <path d="M6 10c-1.1 0-2 .9-2 2s.9 2 2 2 2-.9 2-2-.9-2-2-2zm12 0c-1.1 0-2 .9-2 2s.9 2 2 2 2-.9 2-2-.9-2-2-2zm-6 0c-1.1 0-2 .9-2 2s.9 2 2 2 2-.9 2-2-.9-2-2-2z"/>
  </symbol>
  <symbol id="more-vert-handle" viewBox="0 0 24 24" height="24" width="24" xmlns="http://www.w3.org/2000/svg">
    <path d="M0 0h24v24H0z" fill="none"/>
    <path d="M12 8c1.1 0 2-.9 2-2s-.9-2-2-2-2 .9-2 2 .9 2 2 2zm0 2c-1.1 0-2 .9-2 2s.9 2 2 2 2-.9 2-2-.9-2-2-2zm0 6c-1.1 0-2 .9-2 2s.9 2 2 2 2-.9 2-2-.9-2-2-2z"/>
  </symbol>
  <symbol id="inbox" viewBox="0 0 24 24" height="24" width="24" xmlns="http://www.w3.org/2000/svg">
    <path d="M19 3H4.99c-1.11 0-1.98.89-1.98 2L3 19c0 1.1.88 2 1.99 2H19c1.1 0 2-.9 2-2V5c0-1.11-.9-2-2-2zm0 12h-4c0 1.66-1.35 3-3 3s-3-1.34-3-3H4.99V5H19v10z"/>
    <path d="M0 0h24v24H0V0z" fill="none"/>
  </symbol>
  <symbol id="delete" viewBox="0 0 24 24" height="24" width="24" xmlns="http://www.w3.org/2000/svg">
    <path d="M6 19c0 1.1.9 2 2 2h8c1.1 0 2-.9 2-2V7H6v12zM19 4h-3.5l-1-1h-5l-1 1H5v2h14V4z"/>
    <path d="M0 0h24v24H0z" fill="none"/>
  </symbol>
  <symbol id="drafts" viewBox="0 0 24 24" height="24" width="24" xmlns="http://www.w3.org/2000/svg">
    <path d="M21.99 8c0-.72-.37-1.35-.94-1.7L12 1 2.95 6.3C2.38 6.65 2 7.28 2 8v10c0 1.1.9 2 2 2h16c1.1 0 2-.9 2-2l-.01-10zM12 13L3.74 7.84 12 3l8.26 4.84L12 13z"/>
    <path d="M0 0h24v24H0z" fill="none"/>
  </symbol>
  <symbol id="mail" viewBox="0 0 24 24" height="24" width="24" xmlns="http://www.w3.org/2000/svg">
    <path d="M20 4H4c-1.1 0-1.99.9-1.99 2L2 18c0 1.1.9 2 2 2h16c1.1 0 2-.9 2-2V6c0-1.1-.9-2-2-2zm0 4l-8 5-8-5V6l8 5 8-5v2z"/>
    <path d="M0 0h24v24H0z" fill="none"/>
  </symbol>
  <symbol id="report" viewBox="0 0 24 24" height="24" width="24" xmlns="http://www.w3.org/2000/svg">
    <path d="M15.73 3H8.27L3 8.27v7.46L8.27 21h7.46L21 15.73V8.27L15.73 3zM12 17.3c-.72 0-1.3-.58-1.3-1.3 0-.72.58-1.3 1.3-1.3.72 0 1.3.58 1.3 1.3 0 .72-.58 1.3-1.3 1.3zm1-4.3h-2V7h2v6z"/>
    <path d="M0 0h24v24H0z" fill="none"/>
  </symbol>
  <symbol id="send" viewBox="0 0 24 24" height="24" width="24" xmlns="http://www.w3.org/2000/svg">
    <path d="M2.01 21L23 12 2.01 3 2 10l15 2-15 2z"/>
    <path d="M0 0h24v24H0z" fill="none"/>
  </symbol>
  <symbol id="star" viewBox="0 0 24 24" height="24" width="24" xmlns="http://www.w3.org/2000/svg">
    <path d="M0 0h24v24H0z" fill="none"/>
    <path d="M12 17.27L18.18 21l-1.64-7.03L22 9.24l-7.19-.61L12 2 9.19 8.63 2 9.24l5.46 4.73L5.82 21z"/>
    <path d="M0 0h24v24H0z" fill="none"/>
  </symbol>
</svg>
